<svg xmlns="http://www.w3.org/2000/svg" viewBox="0 0 280 80" fill="none" aria-label="Suganartstudio">
  <!-- Mandala-inspired circular motif -->
  <g transform="translate(40, 40)">
    <circle cx="0" cy="0" r="28" fill="none" stroke="currentColor" stroke-width="1.5" opacity="0.9"/>
    <circle cx="0" cy="0" r="22" fill="none" stroke="currentColor" stroke-width="1" opacity="0.7"/>
    <circle cx="0" cy="0" r="16" fill="none" stroke="currentColor" stroke-width="1" opacity="0.5"/>
    <line x1="0" y1="0" x2="24.25" y2="14" stroke="currentColor" stroke-width="1.2" opacity="0.8"/>
    <line x1="0" y1="0" x2="14" y2="24.25" stroke="currentColor" stroke-width="1.2" opacity="0.8"/>
    <line x1="0" y1="0" x2="-14" y2="24.25" stroke="currentColor" stroke-width="1.2" opacity="0.8"/>
    <line x1="0" y1="0" x2="-24.25" y2="14" stroke="currentColor" stroke-width="1.2" opacity="0.8"/>
    <line x1="0" y1="0" x2="-24.25" y2="-14" stroke="currentColor" stroke-width="1.2" opacity="0.8"/>
    <line x1="0" y1="0" x2="-14" y2="-24.25" stroke="currentColor" stroke-width="1.2" opacity="0.8"/>
    <line x1="0" y1="0" x2="14" y2="-24.25" stroke="currentColor" stroke-width="1.2" opacity="0.8"/>
    <line x1="0" y1="0" x2="24.25" y2="-14" stroke="currentColor" stroke-width="1.2" opacity="0.8"/>
    <line x1="0" y1="0" x2="28" y2="0" stroke="currentColor" stroke-width="1.2" opacity="0.8"/>
    <line x1="0" y1="0" x2="-28" y2="0" stroke="currentColor" stroke-width="1.2" opacity="0.8"/>
    <line x1="0" y1="0" x2="19.8" y2="20.2" stroke="currentColor" stroke-width="1.2" opacity="0.8"/>
    <line x1="0" y1="0" x2="-19.8" y2="20.2" stroke="currentColor" stroke-width="1.2" opacity="0.8"/>
    <line x1="0" y1="0" x2="-19.8" y2="-20.2" stroke="currentColor" stroke-width="1.2" opacity="0.8"/>
    <line x1="0" y1="0" x2="19.8" y2="-20.2" stroke="currentColor" stroke-width="1.2" opacity="0.8"/>
    <circle cx="0" cy="0" r="6" fill="currentColor" opacity="0.9"/>
  </g>
  <!-- Text: Suganartstudio -->
  <text x="88" y="52" font-family="Georgia, 'Times New Roman', serif" font-size="28" font-weight="700" fill="currentColor" letter-spacing="-0.02em">Suganartstudio</text>
  <!-- Dot mandala accent -->
  <circle cx="268" cy="26" r="4" fill="currentColor" opacity="0.6"/>
</svg>
